<svg id="Layer_1" data-name="Layer 1" xmlns="http://www.w3.org/2000/svg" viewBox="0 0 400 300"><defs><style>.cls-1{fill:#ac8eaf;}.cls-2{fill:none;stroke:#ac8eaf;stroke-miterlimit:10;stroke-width:14.17px;}</style></defs><path class="cls-1" d="M312.74,64.61V31.23a1.11,1.11,0,0,1,1.2-1h13.19c3.76,0,6.8-2.47,6.8-5.52V12.87c0-3-3-5.52-6.8-5.52h-57c-3.75,0-6.8,2.47-6.8,5.52V24.73c0,3.05,3,5.52,6.8,5.52h13.19a1.11,1.11,0,0,1,1.2,1V45c0,.8-1.14,1.26-1.93.77L216.79,4.64a32.68,32.68,0,0,0-33.58,0L5.13,115.94c-5.76,3.6-6.83,10.31-2.4,15h0c4.43,4.68,12.69,5.55,18.45,2l162-101.26a32.68,32.68,0,0,1,33.58,0l162,101.26c5.76,3.6,14,2.73,18.45-2h0c4.43-4.67,3.36-11.38-2.4-15Z" transform="translate(0 0)"/><path class="cls-1" d="M328.11,131v138c0,5.36-5.36,9.72-12,9.72H264c-3.31,0-6-2.18-6-4.86V219.56C258,211,249.38,204,238.81,204H160.94c-10.58,0-19.16,7-19.16,15.56v54.21c0,2.68-2.68,4.86-6,4.86H83.86c-6.61,0-12-4.36-12-9.72V131c0-5.9-5.89-10.68-13.16-10.68h0c-7.27,0-13.16,4.78-13.16,10.68V289.31c0,5.91,5.89,10.69,13.16,10.69h90.75c7.27,0,13.16-4.79,13.16-10.7v-53c0-8.59,8.58-15.55,19.16-15.55h36.4c10.58,0,19.16,7,19.16,15.55v53c0,5.91,5.89,10.7,13.16,10.7h90.75c7.27,0,13.16-4.78,13.16-10.69V131c0-5.9-5.89-10.68-13.16-10.68h0C334,120.27,328.11,125.05,328.11,131Z" transform="translate(0 0)"/><path class="cls-1" d="M223.52,259.87c-4.76-.59-8.64,3.59-5.48,7.55a3,3,0,0,0,.92.75c4.88,2.57,10-.58,9.3-4.45C227.9,261.77,225.93,260.17,223.52,259.87Z" transform="translate(0 0)"/><path class="cls-2" d="M258.19,91.71c-15.94-12.12-41.5-11.89-57.09.51h0a2.66,2.66,0,0,1-3.11,0h0c-16-12.11-41.51-11.89-57.09.51h0c-15.59,12.4-15.3,32.27.65,44.39l1.57,1.2L199.19,181a2.82,2.82,0,0,0,3.31,0l54.81-43.6,1.54-1.22C274.43,123.71,274.14,103.83,258.19,91.71Z" transform="translate(0 0)"/></svg>