<svg id="Layer_2" data-name="Layer 2" xmlns="http://www.w3.org/2000/svg" viewBox="0 0 440.17 330.17"><defs><style>.cls-1{fill:#ac8eaf;stroke:#ac8eaf;stroke-width:14.17px;}.cls-1,.cls-3{stroke-miterlimit:10;}.cls-2{fill:#fff;}.cls-3{fill:none;stroke:#fff;stroke-width:22.68px;}</style></defs><rect class="cls-1" x="7.09" y="7.09" width="426" height="316"/><path class="cls-2" d="M353.57,40.35c0,3-3,5.52-6.8,5.52H333.58a1.11,1.11,0,0,0-1.2,1V80.23l82.13,51.33a10.07,10.07,0,0,1,5.13,8.47,9.43,9.43,0,0,1-2.73,6.51c-4.43,4.68-12.69,5.55-18.45,2l-162-101.26a32.68,32.68,0,0,0-33.58,0l-162,101.26a15.14,15.14,0,0,1-8,2.22,14.38,14.38,0,0,1-10.43-4.17c-4.43-4.68-3.35-11.39,2.4-15L202.85,20.26a32.68,32.68,0,0,1,33.58,0L302.25,61.4c.79.49,1.93,0,1.93-.77V46.84a1.1,1.1,0,0,0-1.2-1H289.79c-3.75,0-6.8-2.47-6.8-5.52V28.49c0-3,3.05-5.52,6.8-5.52h57c3.76,0,6.8,2.47,6.8,5.52Z" transform="translate(0.09 0.09)"/><path class="cls-2" d="M335.78,294.25c6.61,0,12-4.36,12-9.73V146.57A9.78,9.78,0,0,1,351.6,139a14.83,14.83,0,0,1,9.31-3.13c7.27,0,13.16,4.79,13.16,10.69V304.93c0,5.9-5.89,10.69-13.16,10.69H270.17c-7.28,0-13.17-4.79-13.17-10.7v-53c0-8.59-8.58-15.55-19.16-15.55h-36.4c-10.58,0-19.16,7-19.16,15.55v53c0,5.91-5.89,10.7-13.16,10.7H78.37c-7.27,0-13.16-4.79-13.16-10.69V146.57A9.78,9.78,0,0,1,69.06,139a14.83,14.83,0,0,1,9.31-3.13c7.27,0,13.16,4.79,13.16,10.69v138c0,5.37,5.36,9.73,12,9.73h51.94c3.3,0,6-2.18,6-4.86V235.18c0-8.59,8.58-15.56,19.16-15.56h77.87c10.57,0,19.15,7,19.15,15.56v54.21c0,2.68,2.68,4.86,6,4.86Z" transform="translate(0.09 0.09)"/><path class="cls-2" d="M237.68,283c-3.16-4,.72-8.15,5.48-7.55,2.41.3,4.38,1.9,4.74,3.85.73,3.87-4.42,7-9.3,4.45A3,3,0,0,1,237.68,283Z" transform="translate(0.09 0.09)"/><path class="cls-3" d="M277.84,107.33c-15.95-12.12-41.51-11.89-57.1.51a2.63,2.63,0,0,1-3.11,0c-7.85-6-18-8.94-28.22-8.94-10.48,0-21,3.16-28.87,9.45-7.68,6.11-11.51,14-11.51,21.94,0,8.15,4.07,16.3,12.16,22.45l1.57,1.2,56.07,42.62a2.81,2.81,0,0,0,3.31,0L277,153l1.54-1.23C294.07,139.32,293.78,119.45,277.84,107.33Z" transform="translate(0.09 0.09)"/></svg>